<?xml version="1.0" standalone="no"?>
<!DOCTYPE svg PUBLIC "-//W3C//DTD SVG 20010904//EN"
 "http://www.w3.org/TR/2001/REC-SVG-20010904/DTD/svg10.dtd">
<svg version="1.0" xmlns="http://www.w3.org/2000/svg"
 width="1068.000000pt" height="1068.000000pt" viewBox="0 0 1068.000000 1068.000000"
 preserveAspectRatio="xMidYMid meet">
<metadata>
Created by potrace 1.11, written by Peter Selinger 2001-2013
</metadata>
<g transform="translate(0.000000,1068.000000) scale(0.100000,-0.100000)"
fill="#000000" stroke="none">
<path d="M5394 8554 c-152 -139 -762 -742 -1907 -1884 l-1288 -1286 625 -624
c657 -656 1243 -1238 1893 -1878 521 -513 707 -692 720 -692 19 1 459 428
1246 1210 329 327 603 597 608 598 5 2 9 10 9 17 0 8 9 17 20 20 11 3 20 9 20
13 0 4 299 306 665 672 366 366 665 669 665 674 0 19 -3115 3118 -3201 3185
l-26 20 -49 -45z m181 -1516 c94 -85 512 -498 1126 -1110 l508 -508 -441 -441
-441 -440 -339 338 c-187 186 -370 368 -406 405 -37 37 -71 68 -76 68 -5 0
-21 -12 -36 -27 -15 -16 -107 -104 -205 -198 -98 -93 -215 -206 -261 -250 -46
-44 -96 -91 -112 -105 -91 -81 -111 -97 -141 -120 -18 -14 -38 -30 -44 -36
-39 -35 -52 -28 -206 110 -82 73 -471 464 -529 531 -23 28 -49 57 -57 66 -9 9
-29 34 -44 55 l-29 38 21 31 c12 16 26 35 32 41 5 6 44 48 85 94 164 182 522
550 941 969 403 403 558 551 577 551 5 0 39 -28 77 -62z"/>
</g>
</svg>
